Coordinates
version=1
nRows=7
nColumns=63
inDegrees=yes

Units are S.I. units (second, meters, Newtons, ...)
If the header above contains a line with 'inDegrees', this indicates whether rotational values are in degrees (yes) or radians (no).

endheader
time	pelvis_tilt	pelvis_list	pelvis_rotation	pelvis_tx	pelvis_ty	pelvis_tz	hip_flexion_r	hip_adduction_r	hip_rotation_r	knee_angle_r	knee_angle_r_beta	ankle_angle_r	subtalar_angle_r	mtp_angle_r	hip_flexion_l	hip_adduction_l	hip_rotation_l	knee_angle_l	knee_angle_l_beta	ankle_angle_l	subtalar_angle_l	mtp_angle_l	L5_S1_Flex_Ext	L5_S1_Lat_Bending	L5_S1_axial_rotation	L4_L5_Flex_Ext	L4_L5_Lat_Bending	L4_L5_axial_rotation	L3_L4_Flex_Ext	L3_L4_Lat_Bending	L3_L4_axial_rotation	L2_L3_Flex_Ext	L2_L3_Lat_Bending	L2_L3_axial_rotation	L1_L2_Flex_Ext	L1_L2_Lat_Bending	L1_L2_axial_rotation	L1_T12_Flex_Ext	L1_T12_Lat_Bending	L1_T12_axial_rotation	Abs_r3	Abs_r2	Abs_r1	Abs_t1	Abs_t2	neck_flexion	neck_bending	neck_rotation	arm_flex_r	arm_add_r	arm_rot_r	elbow_flex_r	pro_sup_r	wrist_flex_r	wrist_dev_r	arm_flex_l	arm_add_l	arm_rot_l	elbow_flex_l	pro_sup_l	wrist_flex_l	wrist_dev_l
      4.82352941	      3.40198090	     -2.63820850	     89.91178125	      0.22151724	      0.97766430	      0.52002233	     -5.81689073	     -0.17703206	     -3.21148687	      6.08634717	      0.10622680	     28.02018940	     13.91031296	      0.00000000	     -2.00847600	     -1.13141770	     -6.38313589	     11.33849841	      0.19789413	     30.54641737	      5.78222395	      0.00000000	     -0.12346486	     -0.08038515	      1.42993347	     -0.22928659	     -0.10691225	      1.51930431	     -0.20284042	     -0.19544845	      1.51930431	     -0.14110799	     -0.19544845	      1.25119179	     -0.11464947	     -0.16392140	      1.16182094	     -0.07054782	     -0.12451660	      1.07245010	     -0.88189715	     -0.90933288	      7.95286098	      0.00000000	      0.00000000	     10.49276500	      2.05763434	     -1.78900275	    -16.85133352	    -31.69686595	     15.24606211	    146.58900746	     57.38820706	     45.41210787	     13.03570117	     -9.59007285	    -26.66349008	     21.48919185	    139.14405680	      5.77922148	     54.24751524	     29.31062239
      4.84313725	      3.39910686	     -2.64871297	     89.87227392	      0.22186037	      0.97778780	      0.51960933	     -5.84792507	     -0.13378397	     -3.00696107	      5.89396843	      0.10286916	     28.09678789	     13.90105784	      0.00000000	     -1.94590694	     -1.15536520	     -6.46029566	     11.46495572	      0.20010123	     30.68692650	      5.71808352	      0.00000000	     -0.12761896	     -0.08272425	      1.43492719	     -0.23700118	     -0.11002326	      1.52461014	     -0.20966519	     -0.20113575	      1.52461014	     -0.14585571	     -0.20113575	      1.25556129	     -0.11850697	     -0.16869130	      1.16587835	     -0.07292148	     -0.12813987	      1.07619540	     -0.91156949	     -0.93579331	      7.98063458	      0.00000000	      0.00000000	     10.70479084	      2.22897394	     -1.44527811	    -16.23462467	    -32.23781291	     16.01330329	    146.51106529	     57.69064291	     45.80434107	     12.38564813	    -10.26959118	    -26.12447910	     19.96378073	    139.39318309	      7.75127488	     50.06056018	     28.27905374
      4.86274510	      3.31128558	     -2.66861605	     89.98705886	      0.22202022	      0.97791922	      0.51921592	     -5.83848921	     -0.16057876	     -2.75404951	      5.78548372	      0.10097574	     28.28060014	     13.60934632	      0.00000000	     -1.87041754	     -1.09203843	     -6.28159962	     11.61443188	      0.20271008	     30.62191757	      5.62256590	      0.00000000	     -0.13043600	     -0.10011360	      1.41788724	     -0.24223270	     -0.13315108	      1.50650519	     -0.21429331	     -0.24341620	      1.50650519	     -0.14907530	     -0.24341620	      1.24065133	     -0.12112287	     -0.20415164	      1.15203338	     -0.07453113	     -0.15507596	      1.06341543	     -0.93169131	     -1.13250502	      7.88586344	      0.00000000	      0.00000000	     10.90616652	      2.49746549	     -1.43844713	    -15.92683754	    -32.55856870	     16.61256147	    146.33700969	     58.18123230	     45.97824176	     11.23415643	    -10.81898837	    -25.86059759	     18.77689641	    139.59907840	      9.75431974	     47.26107701	     27.20569775
      4.88235294	      3.39770418	     -2.64688298	     89.95214522	      0.22213073	      0.97808443	      0.51905640	     -5.80474551	     -0.04412278	     -2.34095373	      5.74831735	      0.10032706	     28.43770020	     13.37710680	      0.00000000	     -1.79543396	     -1.16899811	     -5.90089845	     11.91644770	      0.20798125	     30.50645797	      5.00655354	      0.00000000	     -0.13976128	     -0.09088114	      1.43229638	     -0.25955067	     -0.12087192	      1.52181490	     -0.22961381	     -0.22096840	      1.52181490	     -0.15973317	     -0.22096840	      1.25325933	     -0.12978232	     -0.18532482	      1.16374081	     -0.07985960	     -0.14077489	      1.07422228	     -0.99830085	     -1.02806564	      7.96600276	      0.00000000	      0.00000000	     11.05727383	      2.52300542	     -1.34551518	    -15.81781199	    -32.79042091	     16.91975868	    146.26392813	     58.55569713	     45.85847931	     10.27934309	    -10.99398387	    -25.77518864	     18.45207703	    139.49631685	     10.65328181	     47.58285184	     26.45471948
      4.90196078	      3.48415717	     -2.64526176	     89.77777633	      0.22250758	      0.97824157	      0.51917807	     -5.68543498	      0.06501494	     -1.66496587	      5.80125518	      0.10125100	     28.57952381	     12.93617733	      0.00000000	     -1.65797195	     -1.31632457	     -6.24336495	     12.35016357	      0.21555102	     30.53453673	      5.22742495	      0.00000000	     -0.14648115	     -0.08393130	      1.46817201	     -0.27203014	     -0.11162863	      1.55993277	     -0.24065388	     -0.20407056	      1.55993277	     -0.16741331	     -0.20407056	      1.28465051	     -0.13602240	     -0.17115270	      1.19288976	     -0.08369933	     -0.13000958	      1.10112901	     -1.04630021	     -0.94944763	      8.16553229	      0.00000000	      0.00000000	     11.16558332	      2.55181178	     -1.35398675	    -15.82799405	    -32.76867036	     17.03888367	    146.20037801	     58.26709515	     45.59748150	      9.95826919	    -10.91253956	    -25.88369845	     18.53663750	    139.32629049	     10.06338770	     49.97858744	     27.32571181
      4.92156863	      3.50376698	     -2.68817184	     89.83568545	      0.22233276	      0.97827249	      0.51918835	     -5.60798236	      0.12112785	     -0.91498963	      5.78145688	      0.10090546	     28.61219784	     12.06661227	      0.00000000	     -1.50470586	     -1.15556196	     -4.32751354	     12.60865371	      0.22006252	     30.02898679	      2.65834126	      0.00000000	     -0.13994902	     -0.08553406	      1.45873722	     -0.25989933	     -0.11376030	      1.54990830	     -0.22992225	     -0.20796752	      1.54990830	     -0.15994774	     -0.20796752	      1.27639507	     -0.12995666	     -0.17442106	      1.18522399	     -0.07996687	     -0.13249226	      1.09405292	     -0.99964186	     -0.96757842	      8.11305881	      0.00000000	      0.00000000	     11.20662886	      2.66811279	     -1.47535675	    -16.00612158	    -32.44106995	     16.74888824	    146.24468049	     56.93415724	     45.60438381	     11.30584484	    -10.75128316	    -26.14660248	     18.83411333	    139.21612213	      8.88340857	     53.27776771	     29.24782910
      4.94117647	      3.53387026	     -2.68602388	     89.74393781	      0.22263897	      0.97840234	      0.51945398	     -5.57019476	      0.17493999	     -0.22582255	      5.77628923	      0.10081527	     28.60444931	     11.42647145	      0.00000000	     -1.34960092	     -1.18584000	     -4.06103720	     12.99452329	      0.22679722	     29.99888243	      2.24183986	      0.00000000	     -0.14334085	     -0.08924666	      1.48150520	     -0.26619829	     -0.11869805	      1.57409927	     -0.23549468	     -0.21699432	      1.57409927	     -0.16382425	     -0.21699432	      1.29631705	     -0.13310631	     -0.18199178	      1.20372297	     -0.08190496	     -0.13824307	      1.11112890	     -1.02386934	     -1.00957602	      8.23968745	      0.00000000	      0.00000000	     11.26114350	      2.77773475	     -1.72382422	    -16.24027757	    -31.98535992	     16.43879693	    146.25694343	     55.33733980	     45.35709789	     12.64253590	    -10.09823233	    -26.67736882	     19.75806614	    138.92163748	      8.31893355	     57.94545498	     30.02985604
